<svg width="59" height="59" viewBox="0 0 59 59" fill="none" xmlns="http://www.w3.org/2000/svg">
<rect width="59" height="59" rx="29.5" fill="#642CA9"/>
<path d="M27.1417 35.0776C27.1417 34.8015 26.9179 34.5776 26.6417 34.5776C26.3656 34.5776 26.1417 34.8015 26.1417 35.0776V41.5001C26.1417 41.7762 26.3656 42.0001 26.6417 42.0001H28.582C28.8582 42.0001 29.0821 41.7762 29.0821 41.5001C29.0821 41.224 28.8582 41.0001 28.582 41.0001H27.1417V35.0777V35.0776Z" fill="#31D586"/>
<path d="M30.2902 36.0953C30.2902 35.8192 30.0663 35.5953 29.7902 35.5953C29.514 35.5953 29.2902 35.8192 29.2902 36.0953V40.9232C29.2902 41.1993 29.514 41.4232 29.7902 41.4232H31.7305C32.0066 41.4232 32.2305 41.1993 32.2305 40.9232C32.2305 40.6471 32.0066 40.4232 31.7305 40.4232H30.2902V36.0954V36.0953Z" fill="#31D586"/>
<path d="M35.5097 26.4998C35.743 25.0034 36.2434 24.1477 36.9285 23.7355C37.4002 23.4517 37.9307 23.3875 38.5027 23.4782C37.8974 21.6438 36.9576 20.4026 35.8459 19.7015C34.9319 19.1251 33.8925 18.9114 32.8241 19.0317C31.7325 19.1545 30.6073 19.6249 29.5469 20.4129C27.3846 22.0198 25.5093 24.9295 24.7218 28.9053L24.7181 28.9242L24.7179 28.9248C24.4201 30.1725 24.0577 31.5559 23.5014 32.8383C23.2078 33.5151 22.8614 34.1583 22.4444 34.7319C24.3373 34.0919 26.0042 33.2106 27.4281 32.1427C29.3726 30.6844 30.8644 28.8761 31.8601 26.8584L32.8276 24.8977L32.8054 27.083C32.7919 28.4197 32.6196 29.8542 31.7794 31.3097C31.033 32.6029 29.7651 33.8943 27.6197 35.115C28.1872 35.407 28.7638 35.5297 29.332 35.5106C30.0502 35.4864 30.7674 35.2358 31.4454 34.8139C32.1449 34.3787 32.7989 33.7643 33.369 33.0281C34.7102 31.296 35.582 28.9096 35.5039 26.5917L35.5024 26.5472L35.5097 26.4999L35.5097 26.4998ZM37.4402 24.591C37.0125 24.8483 36.6848 25.4675 36.5012 26.6073C36.5741 29.1455 35.6206 31.7486 34.158 33.6374C33.5148 34.468 32.7721 35.1643 31.9727 35.6616C31.1519 36.1723 30.2676 36.4762 29.3632 36.5067C28.3432 36.541 27.3128 36.2277 26.337 35.4721L25.7174 34.9923L26.4151 34.6342C28.8285 33.3955 30.1747 32.0979 30.9161 30.8136C31.1951 30.3302 31.3895 29.8453 31.5238 29.364C30.5824 30.6933 29.4118 31.9001 28.0258 32.9396C26.0637 34.4111 23.6703 35.546 20.8858 36.216L18.4371 36.8052L20.4776 35.3273C21.4149 34.6485 22.083 33.6063 22.5873 32.4438C23.1053 31.2497 23.4552 29.9095 23.7452 28.6943L23.7453 28.6943C24.5869 24.4676 26.6115 21.3523 28.9531 19.6121C30.1569 18.7175 31.4486 18.182 32.7148 18.0394C34.0041 17.8943 35.2635 18.1554 36.3772 18.8578C37.8601 19.793 39.0682 21.5051 39.7138 24.0737L39.9468 25.0006L39.0537 24.6616C38.4077 24.4164 37.847 24.3462 37.4402 24.591L37.4402 24.591Z" fill="white"/>
<path d="M34.9031 22.4643C35.381 22.4643 35.7684 22.0769 35.7684 21.599C35.7684 21.1212 35.381 20.7338 34.9031 20.7338C34.4252 20.7338 34.0378 21.1212 34.0378 21.599C34.0378 22.0769 34.4252 22.4643 34.9031 22.4643Z" fill="#31D586"/>
</svg>
