<svg width="59" height="59" viewBox="0 0 59 59" fill="none" xmlns="http://www.w3.org/2000/svg">
<rect width="59" height="59" rx="29.5" fill="#642CA9"/>
<path d="M36.4345 21.6043C36.2379 21.5648 36.0337 21.5344 35.8228 21.5139C35.6269 21.4948 35.4152 21.4849 35.188 21.4849C34.9607 21.4849 34.749 21.4948 34.5531 21.5139C34.3422 21.5344 34.138 21.5648 33.9414 21.6043C33.7461 21.6435 33.5507 21.6936 33.3562 21.7539C33.1692 21.8119 32.9851 21.8797 32.8049 21.9566L32.7983 21.9596L32.7987 21.9606C32.7864 21.9659 32.7741 21.9706 32.7616 21.9748C32.6529 22.0165 32.5353 22.0328 32.4189 22.022C32.2844 22.0096 32.1526 21.9625 32.0385 21.8786L32.1532 21.7222L32.0388 21.8781L32.0384 21.8778L32.0374 21.8793C32.0261 21.871 32.0153 21.8623 32.0049 21.8532L30.3114 20.6091L30.8132 23.0829C30.8411 23.1801 30.8498 23.2821 30.8377 23.3829C30.8257 23.4822 30.7928 23.5821 30.7373 23.6768L30.7389 23.6778C30.7304 23.6923 30.7212 23.7063 30.7115 23.7197C30.6557 23.8186 30.6045 23.9222 30.5584 24.0303C30.5071 24.1506 30.4642 24.2718 30.4305 24.3931C30.3973 24.5127 30.3719 24.635 30.355 24.7596C30.3392 24.8759 30.331 25.0013 30.331 25.1356C30.331 25.609 30.4523 26.062 30.672 26.4763C30.9056 26.9168 31.2522 27.3176 31.6851 27.6575C32.1362 28.0117 32.676 28.2972 33.2767 28.492C33.8613 28.6816 34.5066 28.7862 35.188 28.7862C35.8693 28.7862 36.5147 28.6816 37.0992 28.492C37.6999 28.2972 38.2398 28.0117 38.6908 27.6575C39.1237 27.3176 39.4703 26.9168 39.7039 26.4763C39.9236 26.062 40.0449 25.609 40.0449 25.1356C40.0449 25.0013 40.0368 24.876 40.0209 24.7596C40.004 24.635 39.9787 24.5127 39.9454 24.3931C39.9114 24.2709 39.87 24.1525 39.8217 24.0381C39.7759 23.9298 39.7211 23.8203 39.6582 23.7101C39.6546 23.7046 39.6511 23.6991 39.6477 23.6936L39.6474 23.6937L39.6426 23.6851C39.6037 23.62 39.574 23.5471 39.5553 23.4689C39.5331 23.3763 39.5273 23.2802 39.5411 23.1852L39.5415 23.1853L39.5417 23.1842L39.5403 23.184C39.5421 23.1719 39.5443 23.16 39.5468 23.1483L39.9109 20.624L38.3862 21.8401L38.3754 21.8493L38.3758 21.8497C38.3711 21.8534 38.3664 21.857 38.3617 21.8605C38.2605 21.9409 38.1401 21.9944 38.0128 22.0157C37.8728 22.0391 37.7254 22.0243 37.5871 21.9646L37.5872 21.9644L37.5866 21.9642L37.5863 21.9648C37.579 21.9616 37.5718 21.9583 37.5647 21.9548C37.3873 21.8792 37.2065 21.8126 37.0233 21.7556C36.8247 21.6938 36.6279 21.6431 36.4345 21.6043V21.6043ZM35.9165 20.5217C36.1583 20.5452 36.3965 20.5809 36.6298 20.6277C36.8728 20.6765 37.1032 20.735 37.3201 20.8025C37.5025 20.8592 37.6792 20.9223 37.8497 20.9913L40.2493 19.0773C40.3559 18.981 40.5029 18.9312 40.6561 18.9532C40.9294 18.9926 41.119 19.2462 41.0796 19.5195L41.0787 19.5194L40.5414 23.2453C40.6136 23.3745 40.6798 23.51 40.7396 23.6514C40.806 23.8081 40.8617 23.967 40.9064 24.1275C40.9516 24.2903 40.9862 24.4569 41.0092 24.6268C41.0328 24.8002 41.0449 24.9701 41.0449 25.1356C41.0449 25.7745 40.882 26.3843 40.5867 26.9412C40.2854 27.5094 39.8481 28.0186 39.308 28.4427C38.7681 28.8667 38.1223 29.2083 37.4039 29.4412C36.7184 29.6635 35.9698 29.7862 35.188 29.7862C34.4061 29.7862 33.6575 29.6635 32.972 29.4412C32.2536 29.2083 31.6078 28.8667 31.0679 28.4427C30.5279 28.0186 30.0905 27.5093 29.7892 26.9411C29.494 26.3843 29.331 25.7745 29.331 25.1356C29.331 24.9701 29.3431 24.8002 29.3667 24.6268C29.3898 24.4569 29.4243 24.2903 29.4696 24.1275C29.5163 23.9594 29.5735 23.7966 29.6404 23.6397C29.6958 23.5098 29.7596 23.3805 29.8313 23.2522L29.0878 19.5864C29.0445 19.4413 29.0674 19.2784 29.1639 19.147C29.3274 18.9245 29.6404 18.8766 29.8629 19.0401L29.8622 19.041L32.5209 20.9943C32.6956 20.9233 32.8766 20.8586 33.0632 20.8008C33.2808 20.7333 33.5088 20.6754 33.7461 20.6277C33.9794 20.5809 34.2176 20.5452 34.4594 20.5217C34.7082 20.4974 34.9516 20.4849 35.188 20.4849C35.4243 20.4849 35.6677 20.4974 35.9165 20.5217H35.9165ZM30.0508 23.2744L30.0507 23.2744L30.0517 23.275H30.0518L30.0508 23.2744Z" fill="#31D586"/>
<path d="M33.2687 22.9103C33.5395 22.9103 33.7848 23.0201 33.9623 23.1976C34.1399 23.3752 34.2497 23.6205 34.2497 23.8913C34.2497 24.1622 34.1399 24.4075 33.9623 24.585C33.7848 24.7626 33.5395 24.8724 33.2687 24.8724C32.9978 24.8724 32.7525 24.7626 32.575 24.585C32.3974 24.4075 32.2876 24.1622 32.2876 23.8913C32.2876 23.6205 32.3974 23.3752 32.575 23.1976C32.7525 23.0201 32.9978 22.9103 33.2687 22.9103ZM33.5928 23.5672C33.5099 23.4842 33.3953 23.4329 33.2687 23.4329C33.142 23.4329 33.0274 23.4842 32.9445 23.5672C32.8615 23.6501 32.8102 23.7647 32.8102 23.8913C32.8102 24.018 32.8615 24.1326 32.9445 24.2155C33.0274 24.2985 33.142 24.3498 33.2687 24.3498C33.3953 24.3498 33.5099 24.2985 33.5928 24.2155C33.6758 24.1326 33.7271 24.018 33.7271 23.8913C33.7271 23.7647 33.6758 23.6501 33.5928 23.5672Z" fill="#31D586"/>
<path d="M37.1073 22.9103C37.3782 22.9103 37.6234 23.0201 37.801 23.1976C37.9785 23.3752 38.0883 23.6205 38.0883 23.8913C38.0883 24.1622 37.9785 24.4075 37.801 24.585C37.6234 24.7626 37.3782 24.8724 37.1073 24.8724C36.8364 24.8724 36.5911 24.7626 36.4136 24.585C36.236 24.4075 36.1262 24.1622 36.1262 23.8913C36.1262 23.6205 36.236 23.3752 36.4136 23.1976C36.5911 23.0201 36.8364 22.9103 37.1073 22.9103ZM37.4315 23.5672C37.3485 23.4842 37.2339 23.4329 37.1073 23.4329C36.9807 23.4329 36.866 23.4842 36.7831 23.5672C36.7002 23.6501 36.6489 23.7647 36.6489 23.8913C36.6489 24.018 36.7002 24.1326 36.7831 24.2155C36.866 24.2985 36.9807 24.3498 37.1073 24.3498C37.2339 24.3498 37.3485 24.2985 37.4315 24.2155C37.5144 24.1326 37.5657 24.018 37.5657 23.8913C37.5657 23.7647 37.5144 23.6501 37.4315 23.5672Z" fill="#31D586"/>
<path d="M35.2212 27.2748C35.3692 27.1482 35.4869 27.0095 35.5741 26.8589C35.6488 26.7296 35.7017 26.5901 35.7326 26.4405H34.7166C34.7689 26.5693 34.8296 26.6941 34.8989 26.8147C34.9905 26.974 35.0977 27.1274 35.2212 27.2748L35.2212 27.2748ZM36.0252 27.1202C35.8693 27.3898 35.6452 27.6263 35.3537 27.83C35.2491 27.9159 35.0944 27.908 34.9992 27.8086L34.9997 27.8082C34.781 27.5796 34.5976 27.3346 34.4478 27.0739C34.3006 26.8177 34.1871 26.5489 34.1057 26.268C34.0957 26.2403 34.0902 26.2104 34.0902 26.1792C34.0902 26.0348 34.2072 25.9178 34.3515 25.9178H36.0244V25.9179C36.0273 25.9179 36.0303 25.9179 36.0332 25.918C36.1774 25.9228 36.2904 26.0437 36.2856 26.188L36.2847 26.1879C36.2731 26.5309 36.1864 26.8416 36.0252 27.1202H36.0252Z" fill="#31D586"/>
<path d="M37.6562 26.9606C37.7013 26.8241 37.6273 26.677 37.4908 26.6319C37.3544 26.5868 37.2072 26.6608 37.1621 26.7972C37.1319 26.888 37.0857 26.974 37.027 27.0537C36.8758 27.259 36.6449 27.4127 36.3883 27.4952C36.1313 27.5779 35.8527 27.5881 35.6069 27.5061C35.5141 27.4752 35.4248 27.4299 35.3421 27.369C35.226 27.2839 35.0628 27.309 34.9777 27.4251C34.8926 27.5413 34.9177 27.7044 35.0338 27.7896C35.1591 27.8818 35.2975 27.9515 35.4436 28.0002C35.7976 28.1182 36.1907 28.1061 36.5475 27.9913C36.9048 27.8764 37.2299 27.6575 37.4475 27.362C37.536 27.2419 37.6072 27.1075 37.6562 26.9606Z" fill="#31D586"/>
<path d="M33.2138 26.7972C33.1687 26.6608 33.0216 26.5868 32.8851 26.6319C32.7487 26.677 32.6747 26.8241 32.7198 26.9606C32.7687 27.1075 32.8399 27.2419 32.9284 27.362C33.146 27.6575 33.4712 27.8764 33.8284 27.9913C34.1853 28.1061 34.5784 28.1182 34.9324 28.0002C35.0785 27.9515 35.2168 27.8818 35.3421 27.7896C35.4582 27.7044 35.4834 27.5413 35.3982 27.4251C35.3131 27.309 35.15 27.2839 35.0338 27.369C34.9512 27.4299 34.8619 27.4752 34.769 27.5061C34.5232 27.5881 34.2446 27.5779 33.9877 27.4952C33.7311 27.4127 33.5001 27.259 33.349 27.0537C33.2903 26.974 33.2441 26.888 33.2138 26.7972Z" fill="#31D586"/>
<path d="M29.1132 26.6591L28.8745 26.8581C27.2863 26.1788 19.7686 23.5036 18.0098 32.8832L18.0086 32.883C17.9994 32.9323 17.9978 32.9813 18.0029 33.0287C18.0395 38.842 23.9867 41.0551 29.9513 41.0551C32.1016 41.055 34.2511 40.7687 36.113 40.2621C38.0066 39.7468 39.6223 38.9977 40.6693 38.0816C42.2122 36.7316 42.5864 35.0649 41.0087 33.2619L41.01 33.2607C40.8358 33.0616 40.5385 33.034 40.3312 33.1919C39.8854 33.5013 30.0978 40.1769 23.7722 33.8513C23.5769 33.6561 23.2604 33.6561 23.0651 33.8513C22.8699 34.0465 22.8699 34.3631 23.0651 34.5583C29.3383 40.8315 38.5307 35.5357 40.5267 34.2601C41.3195 35.404 41.009 36.4601 40.0131 37.3316C39.0857 38.143 37.6081 38.8192 35.8512 39.2972C34.0627 39.7839 32.0044 40.059 29.9513 40.059C24.4847 40.059 19.034 38.1193 18.999 33.0242C20.6924 24.1358 28.2911 27.6772 28.7139 27.8814C28.8885 27.976 29.1104 27.9607 29.2723 27.8258L29.2709 27.8241L29.5797 27.5667C29.4964 27.4402 29.4188 27.3097 29.3475 27.1753C29.2584 27.0072 29.1801 26.835 29.1133 26.6591L29.1132 26.6591Z" fill="white"/>
<path d="M40.7822 27.5881C41.4666 28.9323 42.479 31.7709 40.5042 34.2394L39.7269 33.6183C41.1898 31.7897 40.6357 29.6689 40.0828 28.4279C40.344 28.1727 40.5798 27.892 40.7822 27.5881V27.5881Z" fill="white"/>
</svg>
