<svg width="59" height="59" viewBox="0 0 59 59" fill="none" xmlns="http://www.w3.org/2000/svg">
<rect width="59" height="59" rx="29.5" fill="#642CA9"/>
<path d="M21.3752 38.909C21.6157 39.0438 21.92 38.9581 22.0549 38.7175C22.1897 38.477 22.104 38.1727 21.8634 38.0379C20.5102 37.2754 19.5744 36.4186 19.4986 35.3467C19.4191 34.2235 20.2278 32.786 22.3819 30.8617C22.5868 30.6783 22.6043 30.3635 22.4209 30.1586C22.2376 29.9536 21.9228 29.9362 21.7178 30.1195C19.3016 32.278 18.4015 33.9904 18.5024 35.417C18.607 36.895 19.7412 37.9883 21.3752 38.9089L21.3752 38.909Z" fill="#31D586"/>
<path d="M41.2497 22.9866C41.2835 23.0354 41.3158 23.0884 41.346 23.1452C41.4632 23.365 41.5241 23.6107 41.499 23.8522C41.4757 24.0753 41.3851 24.2856 41.2081 24.4613C41.2934 25.8121 40.9779 26.816 40.2776 27.4869C39.5469 28.1868 38.4321 28.4844 36.9502 28.3976C35.9884 28.5395 35.2779 28.7874 34.9143 29.1814C34.603 29.5187 34.5576 30.0219 34.8511 30.7366C35.1851 31.3324 35.5259 31.9084 35.8673 32.4855C37.2689 34.8545 38.6804 37.2401 39.362 40.4463L39.3628 40.4461C39.3875 40.5619 39.3698 40.677 39.3203 40.7751C39.1563 41.1561 38.8602 41.4634 38.493 41.6758C38.18 41.8568 37.8138 41.97 37.4359 42.0005C37.0594 42.0309 36.6659 41.9793 36.2961 41.831C35.8332 41.6454 35.4137 41.3109 35.1182 40.8L35.117 40.8004C35.0986 40.7685 35.0841 40.7355 35.0733 40.7019C34.7254 39.8368 34.312 38.876 33.8556 38.0045C33.4522 37.2341 33.0135 36.5289 32.5553 36.0182C31.5324 36.1542 30.6522 36.3723 30.062 36.7568C29.6112 37.0505 29.3331 37.4633 29.305 38.0486L31.1811 38.1493L31.1557 38.6474L31.1826 38.1481C31.2314 38.1507 31.2783 38.1603 31.3222 38.1758C31.885 38.3499 32.3121 38.8542 32.5022 39.438C32.5971 39.7294 32.6348 40.0449 32.6021 40.351C32.5679 40.6711 32.4562 40.9825 32.2524 41.2506C31.9198 41.688 31.3628 41.9906 30.5287 41.9906H23.3268C23.1604 41.9906 23.0131 41.9094 22.9222 41.7844C19.3151 37.7145 21.3133 34.8601 24.3588 32.1397C24.9798 31.5849 25.5956 31.0759 26.2155 30.5634C27.4838 29.5149 28.7697 28.4518 29.7502 27.322C29.6831 26.4711 29.6796 25.6862 29.7606 24.9891C29.8417 24.2906 30.0074 23.671 30.2775 23.1485C30.0605 22.4368 29.9869 21.6931 30.0514 20.9186C30.1209 20.0827 30.3524 19.2084 30.7385 18.2972L31.1975 18.4906L30.7372 18.2955C30.8449 18.0412 31.1384 17.9225 31.3927 18.0302C31.4635 18.0603 31.5239 18.1048 31.5717 18.1588C32.0548 18.6289 32.4884 19.1613 32.8768 19.7504C33.2135 20.2611 33.5131 20.8083 33.7788 21.3888C34.628 21.401 35.3141 21.5255 35.8741 21.7368C36.5323 21.9853 37.0165 22.3496 37.3834 22.792C37.5541 22.9478 37.8403 23.0218 38.1902 23.0508C38.5764 23.0827 39.0205 23.0576 39.4796 23.0178C39.6761 22.8035 39.8887 22.6512 40.1233 22.5832C40.4829 22.4791 40.8332 22.5609 41.1709 22.8903L41.1724 22.8898C41.2027 22.9195 41.2285 22.9521 41.2497 22.9867L41.2497 22.9866ZM40.4671 23.6139C40.4606 23.6017 40.4524 23.5883 40.4428 23.5738C40.4169 23.5497 40.4037 23.5394 40.4007 23.5402C40.3352 23.5592 40.2477 23.6433 40.1452 23.7724C40.0645 23.8935 39.9318 23.9785 39.7756 23.9932L39.7739 23.9915C39.188 24.0464 38.6126 24.0886 38.1081 24.0469C37.5418 24 37.0489 23.8492 36.6901 23.5089C36.6662 23.489 36.6438 23.4666 36.6234 23.4416L36.6234 23.4411C36.3599 23.1195 36.0076 22.8535 35.5225 22.6704C35.0117 22.4776 34.3554 22.3729 33.5065 22.3849C33.2941 22.4076 33.0828 22.2914 32.9941 22.0849L32.9945 22.0848C32.7146 21.4329 32.3993 20.835 32.0448 20.2973C31.8388 19.9848 31.618 19.6898 31.3817 19.4133C31.2022 19.9601 31.09 20.4894 31.0475 21.0006C30.9889 21.7051 31.0636 22.3725 31.2774 23.0011C31.3395 23.1443 31.334 23.3143 31.2474 23.4582L31.2461 23.4574C30.9861 23.8903 30.8289 24.4473 30.7528 25.1023C30.6737 25.783 30.6824 26.5571 30.756 27.4001C30.7814 27.541 30.7464 27.6918 30.6472 27.8101L30.6465 27.8095C29.5903 29.0694 28.2114 30.2093 26.8522 31.3329C26.2103 31.8636 25.5728 32.3907 25.0229 32.8819C22.4166 35.21 20.681 37.6361 23.5511 40.9906H30.5287C31.0108 40.9906 31.306 40.8509 31.4595 40.649C31.5457 40.5356 31.5939 40.3952 31.6099 40.2455C31.6274 40.0818 31.606 39.9092 31.553 39.7466C31.4612 39.4646 31.2826 39.2261 31.0605 39.1417L28.8389 39.0224C28.587 39.0275 28.3665 38.842 28.3335 38.5864L28.3352 38.5849C28.1735 37.331 28.6425 36.4918 29.519 35.9209C30.3034 35.4099 31.4103 35.1472 32.6641 34.9975C32.8174 34.9726 32.98 35.0192 33.0982 35.1374L33.0982 35.1375C33.6886 35.7278 34.2414 36.5944 34.7384 37.5435C35.2179 38.4592 35.6431 39.4458 35.9981 40.3282C36.1715 40.6142 36.4084 40.8014 36.6672 40.9052C36.8863 40.9931 37.1251 41.0232 37.3578 41.0044C37.5891 40.9857 37.8092 40.9188 37.9931 40.8125C38.1424 40.7261 38.2663 40.615 38.3487 40.4852C37.6872 37.522 36.343 35.2498 35.0079 32.9933C34.6607 32.4063 34.314 31.8203 33.9844 31.2326C33.9698 31.2096 33.9569 31.1851 33.946 31.1592L33.9477 31.1581C33.4645 30.013 33.5859 29.1493 34.1799 28.5057C34.7155 27.9253 35.6327 27.5808 36.8258 27.407C36.8692 27.3978 36.9145 27.3944 36.961 27.3974L36.9609 27.3983C38.1808 27.4767 39.0612 27.2711 39.5862 26.7681C40.0973 26.2786 40.3052 25.4667 40.1968 24.3184C40.1599 24.1108 40.2579 23.8942 40.454 23.7897L40.4549 23.7914C40.4594 23.789 40.4642 23.7861 40.4693 23.7828C40.4749 23.7783 40.4806 23.7739 40.4864 23.7696L40.4871 23.7705L40.4883 23.7696L40.4893 23.7709C40.501 23.7621 40.5063 23.7554 40.5068 23.7506C40.5105 23.7148 40.495 23.6662 40.4671 23.6139L40.4671 23.6139Z" fill="white"/>
<path d="M34.6899 24.7707C35.0434 24.7707 35.33 24.4842 35.33 24.1307C35.33 23.7772 35.0434 23.4906 34.6899 23.4906C34.3364 23.4906 34.0499 23.7772 34.0499 24.1307C34.0499 24.4842 34.3364 24.7707 34.6899 24.7707Z" fill="#31D586"/>
</svg>
