<svg width="59" height="59" viewBox="0 0 59 59" fill="none" xmlns="http://www.w3.org/2000/svg">
<rect width="59" height="59" rx="29.5" fill="#642CA9"/>
<path d="M27.9855 24.5072C29.5974 24.5072 31.1213 24.712 32.4664 25.0744C33.6758 25.4002 34.7442 25.8554 35.607 26.4061C36.9906 24.5599 38.1736 24.4424 40.9767 24.1644C41.0967 24.1525 41.22 24.1402 41.3465 24.1275L41.9401 24.068L41.8934 24.6627C41.7811 26.0922 41.7 27.0431 41.2787 27.9073C40.9231 28.6369 40.3489 29.2516 39.3451 29.9625C40.3806 30.6795 40.9782 31.3026 41.3513 32.045C41.793 32.9236 41.8844 33.8903 41.9981 35.3372L42.0448 35.9318L41.4512 35.8724L41.2591 35.8532C38.2665 35.5537 37.0298 35.4299 35.6231 33.478C34.7613 34.0311 33.6935 34.4883 32.4843 34.8159C31.1351 35.1814 29.6049 35.388 27.9855 35.388C25.285 35.388 22.8315 34.8133 21.0478 33.8843C19.1647 32.9036 18 31.5138 18 29.9476C18 28.3814 19.1647 26.9916 21.0478 26.0109C22.8315 25.0818 25.285 24.5072 27.9855 24.5072V24.5072ZM32.2086 26.0392C30.9469 25.6993 29.5111 25.5072 27.9855 25.5072C25.4472 25.5072 23.158 26.0386 21.5087 26.8976C19.9587 27.7049 19 28.7853 19 29.9476C19 31.1099 19.9587 32.1903 21.5087 32.9976C23.158 33.8566 25.4472 34.3879 27.9855 34.3879C29.5181 34.3879 30.9602 34.1941 32.2265 33.851C33.5244 33.4995 34.632 32.994 35.4553 32.3836L35.8807 32.0682L36.1701 32.5125C37.3826 34.3742 38.4045 34.5612 40.9533 34.8204C40.8648 33.8085 40.7596 33.0849 40.4607 32.4903C40.1083 31.7891 39.4505 31.1884 38.1789 30.3886L37.5146 29.9707L38.175 29.5468C39.4109 28.7534 40.0434 28.1609 40.3803 27.4698C40.6662 26.8832 40.7638 26.1724 40.8491 25.179C38.3545 25.4278 37.3601 25.5746 36.1408 27.3729L35.85 27.8017L35.4338 27.4959C34.6082 26.8894 33.5022 26.3878 32.2086 26.0392L32.2086 26.0392Z" fill="white"/>
<path d="M21.7897 29.7755C22.1592 29.7755 22.4587 29.476 22.4587 29.1065C22.4587 28.737 22.1592 28.4375 21.7897 28.4375C21.4202 28.4375 21.1207 28.737 21.1207 29.1065C21.1207 29.476 21.4202 29.7755 21.7897 29.7755Z" fill="#6AEBBC"/>
<path d="M24.8064 26.3084C25.1465 27.4054 25.326 28.5115 25.3339 29.6274C25.3431 30.9284 25.1191 32.2371 24.6444 33.554C24.3156 33.4854 23.9898 33.4052 23.6696 33.3128C24.1294 32.072 24.3463 30.8452 24.3378 29.6313C24.3304 28.5946 24.1587 27.5631 23.8335 26.5363C24.1536 26.4486 24.4788 26.3729 24.8064 26.3083L24.8064 26.3084Z" fill="#31D586"/>
<path d="M29.003 27.3188C28.893 27.0663 28.5992 26.9509 28.3468 27.0609C28.0943 27.1709 27.9789 27.4648 28.0889 27.7172C28.4408 28.5181 28.5892 29.2391 28.5757 29.8964C28.5625 30.5404 28.3913 31.1336 28.1026 31.689C27.9754 31.9339 28.0707 32.2356 28.3155 32.3628C28.5604 32.4901 28.8621 32.3948 28.9893 32.1499C29.3444 31.4668 29.5551 30.7284 29.5718 29.9159C29.5883 29.1167 29.4148 28.2562 29.003 27.3187L29.003 27.3188Z" fill="#935DD6"/>
<path d="M32.1754 27.3188C32.0654 27.0663 31.7716 26.9509 31.5192 27.0609C31.2668 27.1709 31.1514 27.4648 31.2614 27.7172C31.6132 28.5181 31.7616 29.2391 31.7481 29.8964C31.7349 30.5404 31.5637 31.1336 31.275 31.689C31.1478 31.9339 31.2431 32.2356 31.4879 32.3628C31.7328 32.4901 32.0345 32.3948 32.1618 32.1499C32.5168 31.4668 32.7275 30.7284 32.7442 29.9159C32.7607 29.1167 32.5873 28.2562 32.1754 27.3187L32.1754 27.3188Z" fill="#935DD6"/>
</svg>
