<svg width="23" height="22" viewBox="0 0 23 22" fill="none" xmlns="http://www.w3.org/2000/svg">
<path d="M14.25 6.25L13.7806 7.133C14.2343 7.3742 14.797 7.23225 15.0821 6.8047L14.25 6.25ZM16.75 2.5L17.5821 3.0547C17.854 2.6468 17.7901 2.10192 17.4312 1.76795L16.75 2.5ZM21.5 9.49995L22.4978 9.43345C22.4628 8.90815 22.0265 8.49995 21.5 8.49995L21.5 9.49995ZM11.5 9.5001V8.5001C11.2348 8.5001 10.9804 8.60545 10.7929 8.793C10.6054 8.9805 10.5 9.2349 10.5 9.5001H11.5ZM11.5 13.0002H10.5C10.5 13.5525 10.9477 14.0002 11.5 14.0002V13.0002ZM16.25 13.0002H17.25C17.25 12.448 16.8023 12.0002 16.25 12.0002V13.0002ZM19.25 17.25L18.4596 16.6374L19.25 17.25ZM15.0821 6.8047L17.5821 3.0547L15.9179 1.9453L13.4179 5.6953L15.0821 6.8047ZM16.75 2.5C17.4312 1.76795 17.4308 1.76752 17.4303 1.76708C17.4301 1.76693 17.4296 1.76648 17.4293 1.76618C17.4287 1.76556 17.428 1.76493 17.4272 1.76427C17.4258 1.76295 17.4243 1.76155 17.4226 1.76005C17.4194 1.75706 17.4157 1.75372 17.4116 1.75004C17.4034 1.74267 17.3934 1.73393 17.3817 1.72393C17.3584 1.70393 17.3281 1.67886 17.2908 1.64949C17.2161 1.59073 17.1129 1.5148 16.9795 1.42785C16.7124 1.25377 16.3253 1.0363 15.8041 0.82394C14.7592 0.39811 13.1931 0 11 0V2C12.9451 2 14.254 2.35189 15.0494 2.67606C15.4486 2.8387 15.7231 2.99623 15.8875 3.1034C15.9698 3.15707 16.0249 3.19833 16.0545 3.2216C16.0693 3.23325 16.0777 3.2404 16.08 3.24237C16.0812 3.24336 16.0808 3.24305 16.079 3.24136C16.078 3.24052 16.0766 3.23932 16.0749 3.23777C16.0741 3.237 16.0731 3.23614 16.0721 3.23519C16.0716 3.23471 16.0711 3.23421 16.0705 3.23369C16.0702 3.23342 16.0698 3.23302 16.0697 3.23289C16.0692 3.23248 16.0688 3.23205 16.75 2.5ZM11 0C8.65325 0 6.0449 1.05073 4.02583 2.88479C1.98885 4.7351 0.5 7.4307 0.5 10.75H2.5C2.5 8.0693 3.69209 5.8899 5.3706 4.3652C7.06695 2.82427 9.2086 2 11 2V0ZM0.5 10.75C0.5 17.6003 5.99665 22.0001 11.5 22.0001V20.0001C7.00335 20.0001 2.5 16.4003 2.5 10.75H0.5ZM21.5 9.49995C21.5 8.49995 21.5 8.49995 21.4999 8.49995C21.4999 8.49995 21.4997 8.49995 21.4996 8.49995C21.4994 8.49995 21.4992 8.49995 21.4988 8.49995C21.498 8.49995 21.4968 8.49995 21.4953 8.49995C21.4921 8.49995 21.4874 8.49995 21.4812 8.49995C21.4688 8.49995 21.4503 8.49995 21.4261 8.49995C21.3776 8.49995 21.3061 8.49995 21.2139 8.49995C21.0292 8.5 20.7617 8.5 20.4296 8.5C19.7656 8.5 18.8438 8.50005 17.8125 8.50005C15.75 8.5001 13.25 8.50015 11.5 8.5001V10.5001C13.25 10.5001 15.75 10.5001 17.8125 10.5C18.8438 10.5 19.7657 10.5 20.4297 10.5C20.7618 10.5 21.0294 10.5 21.2139 10.5C21.3062 10.5 21.3777 10.5 21.4262 10.5C21.4504 10.5 21.4689 10.5 21.4813 10.5C21.4875 10.5 21.4921 10.5 21.4953 10.5C21.4969 10.5 21.4981 10.5 21.4988 10.5C21.4993 10.5 21.4995 10.5 21.4998 10.5C21.4998 10.5 21.4999 10.5 21.5 10.5C21.5 10.5 21.5 10.5 21.5 9.49995ZM10.5 9.5001V13.0002H12.5V9.5001H10.5ZM11.5 14.0002H16.25V12.0002H11.5V14.0002ZM15.25 13.0002C15.25 13.3488 14.9892 13.9663 14.2905 14.5399C13.6241 15.087 12.6587 15.5003 11.5 15.5003V17.5003C13.1413 17.5003 14.551 16.9136 15.5595 16.0857C16.5358 15.2842 17.25 14.1517 17.25 13.0002H15.25ZM11.5 15.5003C8.6914 15.5003 7 13.0979 7 10.75H5C5 13.902 7.3086 17.5003 11.5 17.5003V15.5003ZM7 10.75C7 8.58195 9.0221 6.49995 11.5 6.49995V4.49995C7.9779 4.49995 5 7.418 5 10.75H7ZM11.5 6.49995C12.5001 6.49995 13.3226 6.8895 13.7806 7.133L14.7194 5.367C14.1774 5.07885 12.9999 4.49995 11.5 4.49995V6.49995ZM11.5 22.0001C14.3363 22.0001 17.7299 20.8439 20.0404 17.8626L18.4596 16.6374C16.5943 19.0443 13.8349 20.0001 11.5 20.0001V22.0001ZM20.0404 17.8626C21.559 15.9032 22.7667 13.4672 22.4978 9.43345L20.5022 9.5665C20.7333 13.033 19.7307 14.9972 18.4596 16.6374L20.0404 17.8626Z" fill="#4265E3"/>
</svg>
