<svg width="32" height="32" viewBox="0 0 32 32" fill="none" xmlns="http://www.w3.org/2000/svg">
<path d="M27.2968 17.003L17.2968 8.88675L17.1113 8.73614V8.50003V7.00003H14.8897V8.50003V8.73614L14.7041 8.88675L4.70409 17.003L4.0752 16.2296L13.8896 8.26392V6.50002V6H14.3896H17.6113H18.1113V6.50002V8.26392L27.9258 16.2296L27.2968 17.003Z" fill="#642CA9"/>
<path d="M25.2501 15.9861V24.5625C25.2501 24.9651 25.0719 25.3294 24.7848 25.5918C24.5093 25.8437 24.1338 26 23.7247 26H8.27538C7.86629 26 7.49074 25.8437 7.21528 25.5918C6.9282 25.3294 6.75 24.9651 6.75 24.5625V15.9861L7.75003 15.1744V24.5626C7.75003 24.6756 7.80255 24.7801 7.88715 24.8575C7.98335 24.9454 8.12053 25 8.27538 25H23.7247C23.8795 25 24.0167 24.9454 24.1129 24.8575C24.1975 24.7801 24.25 24.6756 24.25 24.5626V15.1745L25.2501 15.9861V15.9861Z" fill="#545566"/>
<path d="M12.5 24.5001V19.6843V19.4634L12.668 19.3132L15.668 16.629L16 16.3319L16.3321 16.629L19.3321 19.3132L19.5 19.4634V19.6843V24.5001H18.5V19.9051L16 17.6682L13.5 19.9051V24.5001H12.5Z" fill="#642CA9"/>
</svg>
